<svg width="538" height="181" viewBox="0 0 538 181" fill="none" xmlns="http://www.w3.org/2000/svg">
<path d="M38.912 132.28C32.6827 132.28 27.2213 131.128 22.528 128.824C17.8347 126.435 14.1653 123.149 11.52 118.968C8.96 114.701 7.68 109.752 7.68 104.12V64.44C7.68 58.7227 8.96 53.7733 11.52 49.592C14.1653 45.4107 17.8347 42.168 22.528 39.864C27.2213 37.4747 32.6827 36.28 38.912 36.28C45.2267 36.28 50.688 37.4747 55.296 39.864C59.9893 42.168 63.616 45.4107 66.176 49.592C68.8213 53.7733 70.144 58.7227 70.144 64.44H50.944C50.944 60.6853 49.8773 57.8267 47.744 55.864C45.696 53.9013 42.752 52.92 38.912 52.92C35.072 52.92 32.0853 53.9013 29.952 55.864C27.904 57.8267 26.88 60.6853 26.88 64.44V104.12C26.88 107.789 27.904 110.648 29.952 112.696C32.0853 114.659 35.072 115.64 38.912 115.64C42.752 115.64 45.696 114.659 47.744 112.696C49.8773 110.648 50.944 107.789 50.944 104.12H70.144C70.144 109.752 68.8213 114.701 66.176 118.968C63.616 123.149 59.9893 126.435 55.296 128.824C50.688 131.128 45.2267 132.28 38.912 132.28ZM115.15 132.28C108.921 132.28 103.502 131.128 98.894 128.824C94.286 126.435 90.702 123.149 88.142 118.968C85.6673 114.701 84.43 109.752 84.43 104.12V87.48C84.43 81.848 85.6673 76.9413 88.142 72.76C90.702 68.4933 94.286 65.208 98.894 62.904C103.502 60.5147 108.921 59.32 115.15 59.32C121.465 59.32 126.883 60.5147 131.406 62.904C136.014 65.208 139.555 68.4933 142.03 72.76C144.59 76.9413 145.87 81.848 145.87 87.48V104.12C145.87 109.752 144.59 114.701 142.03 118.968C139.555 123.149 136.014 126.435 131.406 128.824C126.883 131.128 121.465 132.28 115.15 132.28ZM115.15 115.64C118.905 115.64 121.763 114.659 123.726 112.696C125.689 110.648 126.67 107.789 126.67 104.12V87.48C126.67 83.7253 125.689 80.8667 123.726 78.904C121.763 76.9413 118.905 75.96 115.15 75.96C111.481 75.96 108.622 76.9413 106.574 78.904C104.611 80.8667 103.63 83.7253 103.63 87.48V104.12C103.63 107.789 104.611 110.648 106.574 112.696C108.622 114.659 111.481 115.64 115.15 115.64ZM161.948 131V60.6H180.508V74.04H186.14L180.508 78.52C180.508 72.5467 182.215 67.8533 185.628 64.44C189.041 61.0267 193.649 59.32 199.452 59.32C206.279 59.32 211.74 61.7093 215.836 66.488C220.017 71.2667 222.108 77.624 222.108 85.56V131H202.908V87.48C202.908 83.8107 201.927 80.9947 199.964 79.032C198.087 76.984 195.399 75.96 191.9 75.96C188.487 75.96 185.841 76.984 183.964 79.032C182.087 80.9947 181.148 83.8107 181.148 87.48V131H161.948ZM276.33 131C269.162 131 263.53 128.952 259.434 124.856C255.338 120.76 253.29 115.128 253.29 107.96V77.88H234.73V60.6H253.29V40.76H272.49V60.6H298.73V77.88H272.49V107.96C272.49 111.8 274.41 113.72 278.25 113.72H297.45V131H276.33ZM317.496 131V60.6H335.416V74.04H340.28L334.776 82.232C334.776 74.6373 336.525 68.92 340.024 65.08C343.523 61.24 348.643 59.32 355.384 59.32C363.149 59.32 369.165 61.6667 373.432 66.36C377.784 71.0533 379.96 77.6667 379.96 86.2V91.96H359.48V87.48C359.48 83.64 358.413 80.6533 356.28 78.52C354.232 76.3867 351.459 75.32 347.96 75.32C344.291 75.32 341.475 76.3867 339.512 78.52C337.635 80.6533 336.696 83.64 336.696 87.48V131H317.496ZM422.15 132.28C415.921 132.28 410.502 131.128 405.894 128.824C401.286 126.435 397.702 123.149 395.142 118.968C392.667 114.701 391.43 109.752 391.43 104.12V87.48C391.43 81.848 392.667 76.9413 395.142 72.76C397.702 68.4933 401.286 65.208 405.894 62.904C410.502 60.5147 415.921 59.32 422.15 59.32C428.465 59.32 433.883 60.5147 438.406 62.904C443.014 65.208 446.555 68.4933 449.03 72.76C451.59 76.9413 452.87 81.848 452.87 87.48V104.12C452.87 109.752 451.59 114.701 449.03 118.968C446.555 123.149 443.014 126.435 438.406 128.824C433.883 131.128 428.465 132.28 422.15 132.28ZM422.15 115.64C425.905 115.64 428.763 114.659 430.726 112.696C432.689 110.648 433.67 107.789 433.67 104.12V87.48C433.67 83.7253 432.689 80.8667 430.726 78.904C428.763 76.9413 425.905 75.96 422.15 75.96C418.481 75.96 415.622 76.9413 413.574 78.904C411.611 80.8667 410.63 83.7253 410.63 87.48V104.12C410.63 107.789 411.611 110.648 413.574 112.696C415.622 114.659 418.481 115.64 422.15 115.64ZM510.42 131C505.471 131 501.119 129.976 497.364 127.928C493.609 125.795 490.665 122.851 488.532 119.096C486.484 115.341 485.46 110.989 485.46 106.04V54.84H463.7V37.56H504.66V106.04C504.66 108.344 505.343 110.221 506.708 111.672C508.159 113.037 510.036 113.72 512.34 113.72H532.82V131H510.42Z" fill="url(#paint0_linear_701_139)"/>
<path d="M99 178V171" stroke="#2D9CDB" stroke-width="2" stroke-linecap="round" stroke-linejoin="round"/>
<path d="M99 167V160" stroke="#2D9CDB" stroke-width="2" stroke-linecap="round" stroke-linejoin="round"/>
<path d="M107 178V169" stroke="#2D9CDB" stroke-width="2" stroke-linecap="round" stroke-linejoin="round"/>
<path d="M107 165V160" stroke="#2D9CDB" stroke-width="2" stroke-linecap="round" stroke-linejoin="round"/>
<path d="M115 178V173" stroke="#2D9CDB" stroke-width="2" stroke-linecap="round" stroke-linejoin="round"/>
<path d="M115 169V160" stroke="#2D9CDB" stroke-width="2" stroke-linecap="round" stroke-linejoin="round"/>
<path d="M96 171H102" stroke="#2D9CDB" stroke-width="2" stroke-linecap="round" stroke-linejoin="round"/>
<path d="M104 165H110" stroke="#2D9CDB" stroke-width="2" stroke-linecap="round" stroke-linejoin="round"/>
<path d="M112 173H118" stroke="#2D9CDB" stroke-width="2" stroke-linecap="round" stroke-linejoin="round"/>
<path d="M437 177V167" stroke="#2D9CDB" stroke-width="2" stroke-linecap="round" stroke-linejoin="round"/>
<path d="M431 177V161" stroke="#2D9CDB" stroke-width="2" stroke-linecap="round" stroke-linejoin="round"/>
<path d="M425 177V171" stroke="#2D9CDB" stroke-width="2" stroke-linecap="round" stroke-linejoin="round"/>
<path d="M404 173V165C404 164.649 403.907 164.305 403.732 164.001C403.556 163.698 403.304 163.445 403 163.27L396 159.27C395.696 159.094 395.351 159.002 395 159.002C394.649 159.002 394.304 159.094 394 159.27L387 163.27C386.696 163.445 386.444 163.698 386.268 164.001C386.093 164.305 386 164.649 386 165V173C386 173.351 386.093 173.695 386.268 173.999C386.444 174.303 386.696 174.555 387 174.73L394 178.73C394.304 178.906 394.649 178.998 395 178.998C395.351 178.998 395.696 178.906 396 178.73L403 174.73C403.304 174.555 403.556 174.303 403.732 173.999C403.907 173.695 404 173.351 404 173Z" stroke="#2D9CDB" stroke-width="2" stroke-linecap="round" stroke-linejoin="round"/>
<path d="M386.27 163.96L395 169.01L403.73 163.96" stroke="#2D9CDB" stroke-width="2" stroke-linecap="round" stroke-linejoin="round"/>
<path d="M395 179.08V169" stroke="#2D9CDB" stroke-width="2" stroke-linecap="round" stroke-linejoin="round"/>
<path d="M359 165C363.971 165 368 163.657 368 162C368 160.343 363.971 159 359 159C354.029 159 350 160.343 350 162C350 163.657 354.029 165 359 165Z" stroke="#2D9CDB" stroke-width="2" stroke-linecap="round" stroke-linejoin="round"/>
<path d="M368 169C368 170.66 364 172 359 172C354 172 350 170.66 350 169" stroke="#2D9CDB" stroke-width="2" stroke-linecap="round" stroke-linejoin="round"/>
<path d="M350 162V176C350 177.66 354 179 359 179C364 179 368 177.66 368 176V162" stroke="#2D9CDB" stroke-width="2" stroke-linecap="round" stroke-linejoin="round"/>
<path d="M329 161H317C315.895 161 315 161.895 315 163V175C315 176.105 315.895 177 317 177H329C330.105 177 331 176.105 331 175V163C331 161.895 330.105 161 329 161Z" stroke="#2D9CDB" stroke-width="2" stroke-linecap="round" stroke-linejoin="round"/>
<path d="M326 166H320V172H326V166Z" stroke="#2D9CDB" stroke-width="2" stroke-linecap="round" stroke-linejoin="round"/>
<path d="M320 158V161" stroke="#2D9CDB" stroke-width="2" stroke-linecap="round" stroke-linejoin="round"/>
<path d="M326 158V161" stroke="#2D9CDB" stroke-width="2" stroke-linecap="round" stroke-linejoin="round"/>
<path d="M320 177V180" stroke="#2D9CDB" stroke-width="2" stroke-linecap="round" stroke-linejoin="round"/>
<path d="M326 177V180" stroke="#2D9CDB" stroke-width="2" stroke-linecap="round" stroke-linejoin="round"/>
<path d="M331 166H334" stroke="#2D9CDB" stroke-width="2" stroke-linecap="round" stroke-linejoin="round"/>
<path d="M331 171H334" stroke="#2D9CDB" stroke-width="2" stroke-linecap="round" stroke-linejoin="round"/>
<path d="M312 166H315" stroke="#2D9CDB" stroke-width="2" stroke-linecap="round" stroke-linejoin="round"/>
<path d="M312 171H315" stroke="#2D9CDB" stroke-width="2" stroke-linecap="round" stroke-linejoin="round"/>
<path d="M287 158V180" stroke="#2D9CDB" stroke-width="2" stroke-linecap="round" stroke-linejoin="round"/>
<path d="M292 162H284.5C283.572 162 282.682 162.369 282.025 163.025C281.369 163.682 281 164.572 281 165.5C281 166.428 281.369 167.318 282.025 167.975C282.682 168.631 283.572 169 284.5 169H289.5C290.428 169 291.318 169.369 291.975 170.025C292.631 170.682 293 171.572 293 172.5C293 173.428 292.631 174.318 291.975 174.975C291.318 175.631 290.428 176 289.5 176H281" stroke="#2D9CDB" stroke-width="2" stroke-linecap="round" stroke-linejoin="round"/>
<path d="M240 169C240 169 244 161 251 161C258 161 262 169 262 169C262 169 258 177 251 177C244 177 240 169 240 169Z" stroke="#2D9CDB" stroke-width="2" stroke-linecap="round" stroke-linejoin="round"/>
<path d="M251 172C252.657 172 254 170.657 254 169C254 167.343 252.657 166 251 166C249.343 166 248 167.343 248 169C248 170.657 249.343 172 251 172Z" stroke="#2D9CDB" stroke-width="2" stroke-linecap="round" stroke-linejoin="round"/>
<path d="M225 160H205L213 169.46V176L217 178V169.46L225 160Z" stroke="#2D9CDB" stroke-width="2" stroke-linecap="round" stroke-linejoin="round"/>
<path d="M189 169H169" stroke="#2D9CDB" stroke-width="2" stroke-linecap="round" stroke-linejoin="round"/>
<path d="M172.45 162.11L169 169V175C169 175.53 169.211 176.039 169.586 176.414C169.961 176.789 170.47 177 171 177H187C187.53 177 188.039 176.789 188.414 176.414C188.789 176.039 189 175.53 189 175V169L185.55 162.11C185.384 161.777 185.129 161.496 184.813 161.3C184.497 161.104 184.132 161 183.76 161H174.24C173.868 161 173.503 161.104 173.187 161.3C172.871 161.496 172.616 161.777 172.45 162.11V162.11Z" stroke="#2D9CDB" stroke-width="2" stroke-linecap="round" stroke-linejoin="round"/>
<path d="M173 173H173.01" stroke="#2D9CDB" stroke-width="2" stroke-linecap="round" stroke-linejoin="round"/>
<path d="M177 173H177.01" stroke="#2D9CDB" stroke-width="2" stroke-linecap="round" stroke-linejoin="round"/>
<path d="M146.5 164.5L150 161M152 159L150 161L152 159ZM142.39 168.61C142.906 169.119 143.317 169.726 143.598 170.395C143.878 171.064 144.024 171.781 144.027 172.507C144.029 173.232 143.888 173.951 143.612 174.621C143.335 175.292 142.929 175.901 142.416 176.414C141.903 176.927 141.294 177.333 140.623 177.61C139.952 177.886 139.234 178.027 138.508 178.025C137.783 178.023 137.065 177.877 136.397 177.596C135.728 177.315 135.121 176.904 134.612 176.388C133.61 175.351 133.056 173.961 133.068 172.519C133.081 171.077 133.659 169.698 134.679 168.678C135.699 167.658 137.078 167.08 138.52 167.067C139.962 167.055 141.351 167.609 142.389 168.611L142.39 168.61ZM142.39 168.61L146.5 164.5L142.39 168.61ZM146.5 164.5L149.5 167.5L153 164L150 161L146.5 164.5Z" stroke="#2D9CDB" stroke-width="2" stroke-linecap="round" stroke-linejoin="round"/>
<defs>
<linearGradient id="paint0_linear_701_139" x1="269" y1="0" x2="269" y2="193" gradientUnits="userSpaceOnUse">
<stop stop-color="#44EE88"/>
<stop offset="1" stop-color="#2D9CDB"/>
</linearGradient>
</defs>
</svg>
